<svg width="60" height="59" viewBox="0 0 60 59" fill="none" xmlns="http://www.w3.org/2000/svg">
<path d="M52.8978 24.4978L47.1429 8.7473V0.428516C47.1429 -0.360391 46.5032 -1 45.7144 -1H14.2858C13.4969 -1 12.8573 -0.360273 12.8573 0.428516V8.74719L7.10214 24.4978C6.41927 26.3636 6.07039 28.335 6.07147 30.3219V54.0765C6.07147 56.7913 8.28011 59 10.995 59H49.005C51.7199 59 53.9285 56.7913 53.9285 54.0765V30.3219C53.9285 28.329 53.5817 26.3694 52.8978 24.4978ZM15.7142 1.85715H44.2857V7.57145H15.7142V1.85715ZM51.0715 49.1321H30.9077C30.1188 49.1321 29.4792 49.7718 29.4792 50.5606C29.4792 51.3495 30.1189 51.9891 30.9077 51.9891H51.0715V54.0763C51.0715 55.2157 50.1445 56.1427 49.005 56.1427H10.995C9.85558 56.1427 8.92862 55.2158 8.92862 54.0763V30.3219C8.92774 28.6695 9.21788 27.03 9.78573 25.4783L15.2848 10.4286H44.7152L50.2142 25.4783C50.7821 27.03 51.0722 28.6695 51.0714 30.3219L51.0715 49.1321Z" fill="#F1CDB3"/>
<path d="M35.6169 32.805C35.1505 29.8772 32.6078 27.632 29.5505 27.632C26.4932 27.632 23.9504 29.8772 23.484 32.805C21.067 33.7989 19.4857 36.2756 19.6899 38.9659C19.9175 41.9637 22.3506 44.392 25.349 44.6148C26.5071 44.7011 27.6572 44.4628 28.6751 43.9259C29.2315 43.6328 29.8697 43.6326 30.4256 43.926C31.3085 44.3908 32.2914 44.6331 33.2891 44.632C33.4429 44.632 33.5974 44.6263 33.7516 44.6149C36.7502 44.3923 39.1832 41.9638 39.411 38.966C39.6152 36.2756 38.0339 33.7989 35.6169 32.805ZM36.562 38.7495C36.4405 40.35 35.1415 41.6466 33.5402 41.7655C32.9176 41.8126 32.3013 41.6851 31.7586 41.3986C31.0781 41.0394 30.3201 40.8517 29.5506 40.8517C28.781 40.8517 28.0231 41.0394 27.3425 41.3986C26.7999 41.6849 26.1849 41.8123 25.5608 41.7655C23.9597 41.6467 22.6606 40.3501 22.5391 38.7495C22.4143 37.1062 23.5296 35.6124 25.1331 35.2746C25.4588 35.206 25.7503 35.0259 25.9573 34.7653C26.1643 34.5047 26.2739 34.18 26.2671 33.8473L26.2648 33.775C26.2648 31.9632 27.7386 30.4893 29.5505 30.4893C31.3623 30.4893 32.8362 31.9632 32.8362 33.7698L32.834 33.8473C32.827 34.1801 32.9366 34.5048 33.1436 34.7654C33.3507 35.026 33.6423 35.2061 33.968 35.2746C35.5717 35.6124 36.6868 37.1062 36.562 38.7495Z" fill="#F1CDB3"/>
<path d="M29.5506 24.7751C32.1108 24.7751 34.1934 22.6924 34.1934 20.1322C34.1934 17.572 32.1108 15.4893 29.5506 15.4893C26.9904 15.4893 24.9077 17.5721 24.9077 20.1322C24.9077 22.6923 26.9906 24.7751 29.5506 24.7751ZM29.5506 18.3465C30.5353 18.3465 31.3363 19.1475 31.3363 20.1322C31.3363 21.1169 30.5353 21.9179 29.5506 21.9179C28.5659 21.9179 27.7649 21.1169 27.7649 20.1322C27.7649 19.1475 28.566 18.3465 29.5506 18.3465Z" fill="#F1CDB3"/>
<path d="M24.1935 25.6561C24.1935 23.0959 22.1107 21.0132 19.5506 21.0132C16.9905 21.0132 14.9078 23.096 14.9078 25.6561C14.9078 28.2162 16.9904 30.2989 19.5506 30.2989C22.1108 30.2989 24.1935 28.2162 24.1935 25.6561ZM19.5506 27.4418C18.5659 27.4418 17.7649 26.6408 17.7649 25.6561C17.7649 24.6714 18.5659 23.8704 19.5506 23.8704C20.5353 23.8704 21.3363 24.6714 21.3363 25.6561C21.3363 26.6408 20.5352 27.4418 19.5506 27.4418Z" fill="#F1CDB3"/>
<path d="M39.5506 21.0131C36.9904 21.0131 34.9077 23.0959 34.9077 25.656C34.9077 28.216 36.9906 30.2988 39.5506 30.2988C42.1107 30.2988 44.1934 28.2162 44.1934 25.656C44.1934 23.0958 42.1107 21.0131 39.5506 21.0131ZM39.5506 27.4418C38.5658 27.4418 37.7649 26.6408 37.7649 25.6561C37.7649 24.6714 38.5659 23.8704 39.5506 23.8704C40.5353 23.8704 41.3363 24.6714 41.3363 25.6561C41.3363 26.6408 40.5353 27.4418 39.5506 27.4418Z" fill="#F1CDB3"/>
<path d="M24.6934 49.1322H24.3465C23.5576 49.1322 22.918 49.7719 22.918 50.5607C22.918 51.3496 23.5577 51.9892 24.3465 51.9892H24.6934C25.4823 51.9892 26.1219 51.3495 26.1219 50.5607C26.122 49.7719 25.4824 49.1322 24.6934 49.1322Z" fill="#F1CDB3"/>
</svg>
